<?xml version="1.0" standalone="no"?>
<!DOCTYPE svg PUBLIC "-//W3C//DTD SVG 20010904//EN"
 "http://www.w3.org/TR/2001/REC-SVG-20010904/DTD/svg10.dtd">
<svg version="1.0" xmlns="http://www.w3.org/2000/svg"
 width="5000.000000pt" height="5000.000000pt" viewBox="0 0 5000.000000 5000.000000"
 preserveAspectRatio="xMidYMid meet">
<metadata>
Created by potrace 1.11, written by Peter Selinger 2001-2013
</metadata>
<g transform="translate(0.000000,5000.000000) scale(0.100000,-0.100000)"
fill="#000000" stroke="none">
<path d="M23904 37717 c-33 -18 -80 -41 -105 -51 -24 -11 -122 -55 -217 -98
-95 -43 -175 -78 -177 -78 -3 0 -28 -11 -57 -24 -229 -104 -855 -337 -1368
-509 -106 -36 -542 -172 -625 -196 -38 -10 -142 -40 -230 -66 -88 -26 -182
-53 -210 -60 -267 -70 -372 -97 -385 -100 -8 -2 -69 -18 -135 -35 -113 -31
-299 -76 -355 -86 -14 -3 -33 -7 -42 -10 -9 -3 -25 -6 -35 -9 -10 -2 -97 -21
-193 -43 -158 -37 -588 -128 -650 -138 -14 -3 -36 -7 -50 -9 -14 -3 -36 -7
-50 -10 -14 -3 -50 -10 -80 -16 -30 -6 -68 -13 -85 -15 -16 -3 -115 -20 -220
-39 -176 -31 -267 -46 -305 -51 -8 -1 -42 -6 -75 -12 -68 -12 -99 -17 -245
-38 -58 -8 -116 -16 -130 -19 -14 -2 -61 -9 -105 -15 -44 -6 -91 -13 -105 -15
-14 -2 -47 -6 -75 -10 -27 -3 -86 -10 -130 -16 -173 -22 -234 -29 -275 -34
-77 -9 -138 -15 -190 -21 -30 -3 -66 -7 -80 -9 -14 -2 -59 -6 -100 -10 -41 -3
-91 -8 -110 -10 -19 -2 -69 -7 -110 -10 -41 -4 -88 -8 -105 -10 -16 -2 -64 -7
-105 -10 -41 -4 -91 -8 -110 -10 -65 -6 -154 -14 -280 -25 -69 -6 -141 -12
-160 -15 -19 -2 -71 -7 -115 -10 -121 -11 -145 -13 -205 -19 -82 -9 -139 -15
-195 -20 -27 -3 -97 -10 -155 -16 -58 -6 -130 -13 -160 -16 -30 -3 -71 -7 -90
-9 -34 -4 -82 -9 -192 -20 -29 -3 -64 -8 -78 -10 -14 -3 -47 -7 -75 -9 -87 -9
-158 -17 -235 -26 -77 -10 -128 -16 -215 -25 -27 -3 -102 -12 -165 -21 -165
-21 -192 -25 -220 -29 -20 -3 -174 -24 -390 -51 -50 -7 -231 -33 -255 -38 -11
-2 -42 -7 -70 -10 -27 -4 -72 -11 -100 -16 -27 -5 -70 -11 -95 -15 -25 -3 -70
-9 -100 -15 -30 -5 -73 -11 -95 -15 -22 -3 -51 -7 -65 -10 -14 -2 -43 -7 -65
-10 -55 -8 -87 -13 -180 -30 -44 -8 -96 -17 -115 -20 -35 -5 -289 -52 -332
-61 -13 -2 -36 -7 -53 -10 -42 -7 -237 -45 -255 -49 -8 -2 -82 -18 -165 -35
-565 -118 -1120 -258 -1605 -404 -25 -7 -85 -25 -135 -40 -49 -15 -97 -29
-105 -33 -8 -3 -19 -7 -25 -9 -5 -1 -68 -21 -140 -45 -71 -24 -132 -44 -135
-44 -3 -1 -12 -4 -20 -8 -8 -3 -87 -31 -175 -63 -148 -52 -414 -153 -460 -173
-11 -5 -72 -31 -135 -57 -470 -193 -808 -362 -1358 -679 -10 -5 -60 -37 -112
-70 -271 -170 -541 -361 -761 -537 -123 -100 -148 -120 -167 -136 -10 -10 -50
-44 -88 -77 -234 -204 -646 -621 -877 -889 -10 -12 -45 -50 -77 -86 -32 -36
-80 -93 -106 -125 -27 -33 -51 -62 -55 -65 -7 -5 -189 -227 -227 -275 -12 -17
-59 -77 -103 -135 -44 -58 -89 -114 -98 -126 -49 -57 -354 -495 -478 -684
-398 -611 -771 -1308 -1023 -1915 -34 -82 -70 -168 -80 -190 -9 -22 -27 -67
-39 -100 -12 -33 -26 -69 -31 -80 -76 -168 -345 -1001 -386 -1195 -3 -14 -18
-74 -34 -135 -30 -112 -134 -587 -144 -660 -4 -23 -8 -52 -11 -65 -10 -52 -26
-142 -30 -168 -2 -15 -11 -72 -19 -127 -9 -55 -18 -120 -21 -145 -5 -45 -13
-104 -20 -150 -10 -73 -15 -111 -20 -170 -3 -36 -8 -85 -10 -110 -2 -25 -7
-79 -11 -120 -3 -41 -8 -88 -9 -105 -27 -257 -27 -1102 0 -1435 2 -25 7 -81
10 -126 3 -44 8 -93 9 -110 2 -16 7 -58 11 -94 7 -65 11 -99 21 -175 3 -22 7
-58 10 -80 2 -22 9 -65 14 -95 5 -30 12 -73 15 -95 26 -180 101 -555 146 -730
17 -66 32 -127 34 -135 61 -288 318 -1011 487 -1370 126 -266 286 -579 308
-603 4 -5 25 18 46 50 83 125 319 450 344 473 3 3 41 50 85 105 44 55 85 105
91 110 5 6 35 39 65 75 29 36 56 67 59 70 3 3 25 28 49 55 235 265 818 851
1025 1030 7 6 43 39 81 75 65 60 190 173 246 221 63 53 138 118 183 159 28 25
92 79 141 120 50 41 92 77 95 80 17 19 295 247 536 440 349 279 603 476 894
693 124 93 236 177 250 187 56 42 129 96 150 110 13 8 35 24 49 35 67 53 663
480 844 606 246 170 454 312 622 426 105 70 192 130 195 133 11 12 709 471
982 647 79 51 251 162 383 247 132 85 321 205 420 267 99 61 196 122 215 134
159 103 741 461 1065 656 23 13 50 29 60 36 53 33 312 189 327 198 29 16 240
142 428 253 215 129 1030 601 1120 649 36 20 70 39 75 43 6 4 30 19 55 32 25
14 137 77 250 140 113 63 221 123 240 132 34 16 34 16 10 -1 -13 -10 -126 -91
-250 -180 -124 -89 -229 -165 -235 -170 -5 -4 -50 -37 -100 -72 -49 -36 -103
-75 -120 -88 -40 -31 -29 -23 -200 -148 -398 -291 -1272 -948 -1533 -1154
-166 -131 -199 -156 -226 -176 -16 -11 -33 -25 -40 -30 -6 -6 -45 -37 -86 -68
-107 -83 -462 -364 -590 -468 -19 -15 -100 -81 -180 -145 -80 -65 -185 -151
-235 -191 -49 -41 -97 -80 -105 -86 -31 -24 -125 -102 -130 -107 -3 -3 -57
-48 -120 -100 -63 -52 -120 -99 -126 -105 -6 -5 -31 -26 -54 -45 -50 -40 -308
-260 -391 -331 -31 -27 -69 -59 -85 -71 -16 -12 -36 -29 -44 -38 -8 -8 -42
-38 -75 -65 -33 -28 -76 -64 -95 -81 -19 -17 -166 -146 -327 -287 -160 -141
-305 -269 -321 -284 -16 -15 -64 -59 -107 -98 -44 -38 -89 -79 -101 -90 -12
-11 -37 -33 -55 -50 -49 -42 -466 -428 -568 -523 -436 -411 -580 -551 -1121
-1092 -431 -431 -616 -621 -879 -899 -24 -25 -78 -82 -120 -127 -42 -44 -123
-131 -181 -194 -58 -63 -114 -123 -125 -135 -12 -11 -88 -94 -170 -185 -83
-91 -154 -170 -160 -176 -36 -39 -162 -179 -175 -193 -55 -64 -129 -147 -150
-171 -14 -15 -52 -58 -85 -96 -33 -37 -80 -91 -105 -119 -25 -28 -70 -79 -100
-114 -30 -35 -60 -69 -65 -75 -6 -6 -64 -74 -130 -151 -66 -77 -122 -142 -126
-145 -3 -3 -66 -77 -140 -165 -174 -208 -172 -206 -184 -219 -39 -41 -493
-593 -615 -746 -19 -24 -60 -73 -90 -110 -30 -36 -68 -83 -85 -105 -16 -21
-51 -63 -76 -94 -65 -79 -559 -707 -649 -825 -41 -54 -85 -110 -97 -124 -13
-14 -23 -28 -23 -31 0 -3 -10 -17 -22 -31 -25 -27 -81 -100 -266 -345 -67 -88
-125 -164 -129 -170 -54 -66 -575 -765 -879 -1180 -185 -252 -238 -325 -261
-358 -12 -18 -39 -55 -60 -84 -53 -71 -217 -299 -282 -392 -50 -70 -204 -287
-552 -775 -194 -273 -211 -297 -207 -300 2 -2 23 -8 48 -15 25 -6 52 -14 60
-16 35 -10 136 -37 150 -40 8 -2 159 -43 335 -90 176 -47 376 -101 445 -120
69 -18 159 -42 200 -53 41 -12 111 -30 155 -42 44 -12 139 -37 210 -56 72 -19
155 -41 185 -49 52 -13 103 -27 335 -90 55 -15 112 -30 126 -32 24 -4 32 8
144 204 253 443 690 1161 995 1633 250 387 621 931 829 1214 202 277 551 730
581 756 4 3 13 14 21 26 13 19 79 100 104 128 6 6 37 43 70 81 33 39 62 72 65
75 3 3 32 36 65 75 33 38 69 79 80 91 11 11 69 73 129 136 l109 116 91 -62
c50 -33 93 -63 96 -66 15 -16 475 -300 485 -300 1 0 51 -27 111 -61 386 -215
900 -439 1359 -591 91 -30 336 -106 368 -114 9 -2 25 -6 35 -9 9 -3 103 -27
207 -54 201 -52 409 -97 625 -135 47 -9 94 -17 105 -20 11 -2 49 -7 85 -11 36
-4 67 -8 70 -10 3 -2 30 -6 60 -9 30 -3 66 -8 80 -11 14 -3 49 -7 78 -11 29
-3 63 -7 74 -9 12 -3 56 -7 97 -10 42 -4 90 -8 106 -9 40 -5 180 -17 230 -21
354 -28 1117 -24 1440 9 28 3 86 7 130 11 44 3 96 7 115 10 19 2 64 7 100 10
36 3 72 8 80 10 8 2 42 7 75 10 33 4 69 8 80 10 11 1 45 6 75 9 30 4 96 14
145 22 101 17 136 23 180 30 17 2 53 9 80 14 28 5 64 11 80 14 17 2 104 20
195 40 91 19 179 38 195 41 17 3 40 8 53 11 56 12 503 128 557 144 33 10 143
44 245 75 738 226 1484 546 2255 969 39 22 206 118 235 136 8 5 78 47 155 93
188 112 379 236 603 391 194 133 393 276 402 286 3 3 61 48 130 100 69 52 150
115 180 140 82 68 86 71 215 176 101 82 229 192 295 254 9 8 52 47 95 85 278
245 582 549 811 810 34 39 96 113 138 165 42 52 83 102 90 111 25 30 213 285
257 347 147 211 139 200 246 367 88 137 313 511 313 521 0 2 11 21 23 42 93
147 441 830 555 1088 22 49 56 123 75 164 19 41 54 120 77 175 23 55 55 128
71 163 16 34 29 65 29 67 0 3 8 24 19 48 10 23 38 89 61 147 23 58 51 124 61
147 11 24 19 47 19 53 0 6 4 18 10 28 51 94 349 913 501 1377 32 99 63 194 69
210 6 17 12 35 14 40 1 6 7 26 13 45 7 19 37 116 68 215 31 99 59 187 62 195
3 8 7 20 8 25 2 6 12 42 25 80 12 39 23 77 25 85 2 9 15 55 30 102 14 48 28
95 30 105 4 21 38 137 60 203 15 49 79 275 115 410 13 47 29 105 36 130 15 54
124 459 129 480 2 8 8 35 14 60 7 25 13 52 15 60 2 8 9 35 16 60 7 25 14 55
16 67 2 12 9 34 14 48 5 14 8 25 5 25 -2 0 3 23 11 52 9 28 17 59 19 67 2 9
20 81 40 161 20 80 38 156 41 170 3 14 9 39 14 55 5 17 18 75 30 130 12 55 32
145 45 200 47 193 96 408 101 444 3 20 8 39 9 42 3 4 34 141 51 227 3 13 25
117 50 230 24 114 46 218 49 232 7 35 13 67 25 125 6 28 12 61 15 75 3 14 9
48 15 75 6 28 12 61 15 74 3 14 14 70 26 125 11 56 23 112 25 126 3 14 16 84
30 155 14 72 28 141 30 155 3 14 9 50 15 80 6 30 13 69 15 85 3 17 10 55 16
85 6 30 13 62 14 70 2 8 6 31 9 50 4 19 9 46 11 60 3 14 13 70 24 125 10 55
23 127 29 160 18 102 21 119 25 140 2 11 7 42 10 69 4 27 9 52 11 56 2 3 6 26
10 50 3 25 12 81 20 125 23 126 23 127 65 380 22 132 42 251 44 265 3 14 7 43
10 65 3 22 10 67 16 100 5 33 26 164 45 290 20 127 38 241 40 255 3 14 7 45
11 70 3 25 7 56 10 70 8 50 23 146 28 190 3 25 8 56 11 70 3 14 7 43 10 65 2
22 18 132 34 245 16 113 33 228 37 255 3 28 8 57 9 65 2 9 6 43 10 75 4 33 9
67 10 76 2 9 6 40 10 70 3 30 8 65 10 79 2 14 9 66 15 115 6 50 13 101 16 115
2 14 13 102 24 195 11 94 22 184 25 200 2 17 7 53 10 80 3 28 10 84 15 125 5
41 12 98 15 125 3 28 12 100 20 160 8 61 17 135 20 165 4 30 8 66 10 80 6 45
15 123 21 195 3 39 7 77 9 85 2 8 7 44 10 80 3 36 10 101 15 145 5 44 12 107
15 140 3 33 8 74 10 90 2 17 7 57 10 90 3 33 8 76 10 95 2 19 7 67 10 105 3
39 8 81 10 95 3 14 7 59 10 100 3 41 7 91 10 110 5 37 15 137 20 199 2 20 6
72 9 116 4 44 9 98 11 120 2 22 7 76 10 120 4 44 8 98 10 120 13 149 17 205
14 205 -2 -1 -31 -15 -65 -33z"/>
<path d="M32528 27724 c-2 -1 -37 -5 -78 -8 -117 -9 -214 -30 -336 -71 -104
-36 -215 -91 -234 -117 -10 -14 3 -833 25 -1488 3 -113 8 -239 10 -280 2 -41
6 -140 10 -220 3 -80 8 -188 10 -240 3 -52 7 -147 10 -210 3 -63 7 -149 10
-190 2 -41 7 -131 10 -200 3 -69 8 -147 10 -175 2 -27 7 -99 10 -160 3 -60 8
-139 10 -175 3 -36 7 -101 10 -145 3 -44 8 -107 10 -140 3 -33 7 -105 11 -160
3 -55 8 -116 9 -135 2 -19 7 -78 10 -130 4 -52 8 -106 10 -119 2 -13 7 -69 11
-124 3 -55 7 -107 9 -116 2 -13 17 -16 96 -15 91 2 238 10 329 19 122 13 155
17 280 36 141 21 260 46 273 58 4 4 10 349 13 767 3 417 7 842 9 944 2 102 6
349 10 550 3 201 8 417 10 480 2 64 7 210 10 325 3 116 7 246 10 290 2 44 7
157 11 250 4 94 7 188 9 210 14 254 18 326 21 360 2 22 6 85 9 140 3 55 8 106
10 113 3 6 -2 12 -10 12 -20 0 -23 1 -75 16 -43 12 -133 26 -250 40 -54 6
-307 13 -312 8z"/>
<path d="M29887 27674 c-1 -1 -40 -4 -87 -8 -447 -35 -820 -205 -1131 -515
-179 -180 -367 -463 -459 -691 -12 -30 -28 -68 -35 -85 -26 -63 -89 -281 -105
-365 -54 -282 -64 -389 -65 -695 0 -313 20 -517 70 -730 9 -38 18 -77 20 -85
17 -71 86 -257 134 -355 218 -453 531 -702 981 -780 102 -18 317 -24 430 -12
104 11 119 13 181 26 30 6 63 13 74 15 47 9 166 50 245 84 75 32 254 128 284
153 6 5 47 38 91 72 93 74 205 185 280 277 60 75 177 240 169 240 -3 0 3 12
14 28 10 15 28 45 39 67 11 22 29 56 40 75 68 123 224 551 247 680 2 14 12 57
21 95 19 81 21 90 29 139 3 20 9 52 12 72 3 20 8 46 10 58 4 20 15 117 29 256
9 82 9 426 1 505 -15 140 -19 171 -22 190 -3 11 -7 38 -10 60 -10 71 -51 228
-82 315 -85 242 -177 388 -347 555 -216 211 -480 325 -815 350 -71 6 -239 12
-243 9z m-46 -767 c30 -9 74 -30 97 -46 42 -31 108 -112 134 -166 24 -47 65
-180 83 -265 1 -3 4 -27 9 -53 4 -27 9 -57 11 -67 2 -10 6 -51 10 -92 3 -40 8
-93 11 -118 19 -175 19 -738 -1 -1010 -11 -154 -29 -318 -40 -360 -2 -8 -7
-34 -10 -58 -6 -43 -52 -204 -77 -273 -25 -68 -93 -172 -140 -214 -65 -59
-130 -87 -205 -90 -140 -7 -246 59 -335 207 -62 101 -130 300 -152 443 -4 22
-11 67 -16 100 -30 192 -35 287 -34 655 0 297 5 422 19 525 22 157 30 204 51
300 60 270 149 442 279 542 19 15 110 52 135 55 50 7 116 1 171 -15z"/>
<path d="M35789 27636 c-2 -2 -42 -6 -89 -10 -268 -20 -598 -101 -601 -148 -1
-24 2 -365 6 -515 6 -252 7 -404 3 -408 -2 -2 -63 -5 -135 -6 -139 -3 -181 -8
-327 -41 -49 -11 -98 -21 -108 -23 -10 -2 -33 -11 -50 -20 -17 -8 -36 -15 -43
-15 -19 0 -174 -78 -248 -126 -214 -137 -415 -372 -531 -619 -67 -143 -142
-378 -159 -500 -4 -22 -8 -53 -11 -70 -28 -155 -39 -483 -23 -675 6 -71 23
-184 41 -275 18 -93 67 -235 113 -332 176 -371 481 -565 887 -564 101 1 114 2
216 22 218 44 407 209 540 471 19 37 36 66 37 64 4 -4 11 -37 18 -91 3 -22 10
-65 15 -95 5 -30 12 -73 15 -95 3 -23 7 -52 10 -65 3 -14 9 -50 15 -80 6 -30
12 -66 15 -80 3 -14 8 -41 11 -60 10 -58 14 -69 27 -65 7 2 71 6 142 10 72 3
141 7 155 9 14 2 52 7 85 11 92 10 128 15 155 20 14 3 52 9 85 15 89 14 236
48 243 55 6 5 4 118 -4 230 -4 72 -4 1204 1 1635 8 754 30 1403 60 1840 17
232 30 373 45 478 7 49 6 68 -3 74 -6 4 -43 12 -82 18 -38 6 -81 14 -95 16
-31 6 -425 16 -431 10z m-656 -1716 c3 -3 8 -63 12 -135 4 -71 8 -155 10 -185
2 -30 7 -107 10 -170 4 -63 8 -137 10 -165 3 -27 7 -86 10 -130 3 -44 8 -109
10 -145 12 -156 14 -278 5 -315 -77 -328 -132 -461 -226 -543 -49 -44 -78 -52
-139 -40 -78 16 -144 97 -191 234 -16 49 -17 53 -29 124 -4 25 -9 53 -11 63
-22 121 -22 544 1 692 33 210 69 336 131 456 72 139 165 224 276 253 48 12
112 15 121 6z"/>
<path d="M48885 27624 c-480 -68 -822 -419 -985 -1007 -12 -43 -23 -88 -26
-100 -2 -12 -9 -47 -15 -77 -15 -74 -16 -77 -24 -138 l-8 -54 -91 6 c-85 6
-160 13 -214 21 -19 3 -27 -4 -43 -39 -19 -44 -63 -203 -74 -266 -18 -112 -24
-195 -16 -208 12 -20 184 -69 379 -108 19 -4 22 -11 23 -57 4 -174 16 -481 24
-567 2 -25 7 -92 10 -150 4 -58 8 -121 10 -140 2 -19 7 -69 10 -110 3 -41 8
-89 10 -106 2 -17 7 -66 11 -110 8 -94 10 -115 18 -174 7 -55 14 -124 22 -210
4 -36 8 -67 9 -70 2 -3 6 -33 10 -65 3 -33 8 -69 10 -80 2 -11 7 -42 10 -70 4
-27 18 -115 32 -195 13 -80 27 -160 30 -179 l6 -34 161 7 c89 4 179 9 201 11
22 2 65 7 95 10 70 8 134 17 348 51 46 7 243 57 329 84 l71 21 -24 87 c-22 80
-81 334 -90 392 -3 14 -9 48 -15 75 -6 28 -13 61 -15 75 -3 14 -16 81 -29 150
-32 167 -34 178 -41 230 -3 25 -8 47 -9 50 -2 3 -6 26 -9 50 -4 25 -9 56 -11
70 -3 14 -7 39 -9 55 -3 17 -10 66 -17 110 -6 44 -13 90 -14 102 -2 13 -6 40
-9 60 -3 21 -8 58 -11 83 -3 25 -10 77 -15 115 -6 39 -12 90 -14 115 -2 25 -7
80 -11 122 l-7 78 42 -6 c60 -9 591 -9 685 -1 160 14 234 33 240 61 17 79 30
165 40 256 3 30 7 71 10 90 2 19 7 93 11 163 l6 128 -48 -6 c-27 -4 -60 -8
-74 -11 -86 -14 -860 -24 -912 -11 -27 7 -27 9 -23 60 2 28 7 98 10 154 5 101
9 133 25 248 25 172 68 282 125 319 38 25 93 18 117 -15 32 -43 39 -211 13
-296 -7 -21 2 -28 52 -37 10 -2 38 -9 63 -16 69 -19 78 -21 190 -41 58 -11
125 -22 150 -24 25 -3 63 -7 85 -10 22 -2 92 -7 156 -10 l116 -6 13 58 c8 32
14 60 15 63 17 70 22 220 10 303 -22 155 -93 307 -193 412 -133 141 -270 211
-507 261 -59 12 -311 11 -400 -2z"/>
<path d="M39170 27339 c-58 -4 -132 -10 -165 -13 -33 -4 -78 -9 -100 -12 -129
-14 -528 -94 -542 -108 -11 -11 1 -539 23 -991 12 -236 13 -258 29 -525 5 -81
12 -173 30 -420 2 -30 7 -98 10 -150 4 -52 8 -106 10 -120 2 -14 7 -68 10
-120 4 -52 8 -101 10 -110 1 -8 6 -55 9 -105 4 -49 9 -108 11 -130 2 -22 7
-69 10 -105 4 -36 8 -76 10 -90 2 -14 6 -56 10 -95 3 -38 8 -90 11 -115 3 -25
7 -63 9 -85 7 -87 24 -240 30 -275 2 -14 7 -50 10 -80 5 -52 7 -71 19 -158 3
-20 8 -62 11 -92 3 -30 10 -84 15 -120 5 -36 12 -83 14 -105 3 -22 8 -51 10
-65 2 -14 7 -45 11 -70 26 -183 32 -220 37 -226 4 -3 39 -1 80 5 40 6 89 13
108 15 19 2 73 9 120 15 92 13 93 13 280 36 69 8 139 17 155 20 17 2 62 7 100
11 39 3 81 8 95 9 26 3 111 11 215 20 33 3 80 8 105 10 67 7 173 14 290 20 58
3 148 8 200 10 52 3 213 7 358 10 144 2 267 7 272 10 6 3 8 16 6 28 -3 12 -7
73 -10 135 -3 63 -8 117 -10 120 -2 4 -7 32 -10 62 -10 83 -15 123 -21 150 -3
14 -12 63 -20 110 -8 47 -19 100 -24 118 -5 18 -9 33 -9 35 3 7 -26 113 -33
117 -12 8 -238 -1 -366 -15 -102 -11 -140 -16 -178 -21 -78 -10 -341 -55 -375
-64 -19 -5 -51 -12 -69 -15 -19 -3 -94 -21 -165 -40 -72 -19 -132 -32 -134
-31 -4 4 -8 31 -22 131 -20 156 -27 216 -36 355 -3 52 -8 111 -9 130 -9 89
-19 620 -19 1065 0 527 9 877 29 1175 20 292 26 362 30 395 2 17 7 61 10 98 4
37 8 76 10 85 1 9 6 46 10 82 4 36 9 68 12 73 2 4 -6 7 -19 8 -13 0 -36 2 -53
5 -50 8 -333 10 -445 3z"/>
<path d="M42897 26714 c-1 -1 -40 -4 -87 -7 -92 -7 -251 -44 -340 -79 -249
-98 -503 -285 -691 -508 -30 -35 -60 -71 -68 -80 -36 -37 -170 -256 -222 -360
-165 -331 -243 -660 -243 -1030 -1 -224 7 -298 50 -457 110 -411 398 -700 802
-804 86 -22 94 -23 207 -39 73 -10 412 -7 475 3 14 3 41 7 60 11 157 25 259
54 405 112 62 25 93 40 190 92 32 17 137 84 145 92 3 3 28 23 55 44 129 102
267 268 315 382 l22 49 -61 57 c-150 141 -430 289 -658 347 -45 12 -85 21 -90
21 -5 0 -20 -30 -32 -67 -74 -216 -222 -436 -333 -494 -77 -40 -173 -21 -251
50 -70 64 -134 230 -154 397 -11 101 -10 449 2 448 6 -1 30 -4 55 -8 25 -3 54
-7 65 -10 82 -17 407 -24 575 -11 115 8 199 16 218 20 11 2 43 6 72 10 126 16
313 66 421 113 48 21 56 34 80 122 7 25 14 50 15 55 7 22 33 142 38 176 3 20
7 42 10 50 3 8 7 37 10 64 3 28 8 61 11 75 20 112 19 438 -2 472 -2 4 -11 34
-19 65 -64 246 -286 464 -569 558 -102 35 -108 36 -250 54 -70 9 -223 19 -228
15z m15 -601 c38 -34 51 -82 54 -203 1 -63 -1 -135 -6 -160 -4 -25 -11 -61
-14 -80 -27 -161 -47 -241 -64 -248 -29 -11 -265 -5 -327 8 -33 7 -67 14 -75
15 -21 3 -15 46 25 190 74 262 179 446 281 490 39 17 100 11 126 -12z"/>
<path d="M45788 26695 c-2 -1 -41 -5 -88 -9 -47 -3 -94 -8 -105 -10 -11 -2
-40 -7 -65 -11 -154 -25 -337 -86 -485 -162 -239 -124 -411 -281 -501 -461
-35 -70 -34 -85 9 -162 11 -19 25 -44 31 -55 46 -86 176 -203 289 -262 76 -39
224 -89 292 -98 28 -3 66 -9 85 -14 19 -4 75 -7 124 -6 l88 0 3 50 c16 238 80
422 184 525 62 62 105 80 176 74 44 -3 94 -29 123 -64 39 -46 86 -183 98 -285
2 -22 7 -56 10 -75 8 -52 12 -106 19 -300 4 -96 8 -179 8 -185 1 -6 -86 -10
-243 -11 -230 -2 -450 -9 -530 -19 -19 -2 -55 -7 -80 -9 -59 -7 -244 -45 -280
-58 -8 -3 -44 -16 -80 -28 -61 -21 -199 -86 -210 -99 -3 -3 -24 -19 -46 -34
-79 -54 -172 -165 -209 -253 -49 -113 -64 -199 -60 -344 2 -69 5 -134 8 -145
3 -11 10 -42 17 -69 13 -60 68 -179 108 -238 39 -56 126 -147 177 -184 22 -16
42 -32 45 -36 3 -4 46 -27 95 -52 113 -56 253 -101 350 -111 204 -23 354 -23
485 -1 14 3 43 7 64 11 48 7 133 30 204 56 67 24 73 24 68 -3 -3 -13 -8 -43
-10 -68 -3 -25 -8 -68 -12 -96 l-6 -51 34 -6 c210 -37 326 -55 398 -63 30 -3
69 -7 85 -10 17 -2 93 -6 170 -9 77 -4 152 -8 166 -10 24 -3 27 2 38 49 14 58
39 170 45 204 3 12 7 30 10 40 3 9 7 28 10 42 2 14 12 58 20 97 9 40 18 87 21
105 3 18 8 40 10 48 2 8 7 31 10 50 3 19 8 42 10 50 2 8 6 26 9 40 2 14 18
102 35 195 17 94 33 185 36 203 8 53 15 94 25 152 5 30 12 75 15 100 3 25 8
56 10 70 2 14 7 45 10 70 4 25 8 56 10 70 4 31 18 150 20 170 1 8 4 44 8 80
18 172 21 239 21 410 1 231 -9 314 -55 473 -77 263 -254 474 -499 593 -64 31
-191 77 -247 89 -83 19 -178 34 -244 40 -73 7 -326 14 -331 10z m277 -2117
c-7 -136 -22 -343 -30 -413 -1 -11 -3 -36 -4 -55 -1 -28 -7 -39 -28 -52 -85
-49 -257 -71 -347 -44 -130 39 -190 163 -164 334 27 172 161 274 418 317 41 7
94 13 118 14 l42 1 -5 -102z"/>
</g>
</svg>
